<mxfile host="Electron" modified="2023-04-20T14:12:22.916Z" agent="Mozilla/5.0 (Windows NT 10.0; Win64; x64) AppleWebKit/537.36 (KHTML, like Gecko) draw.io/21.1.2 Chrome/106.0.5249.199 Electron/21.4.3 Safari/537.36" etag="KKvSjBKz-bOEIJLxT3Tx" version="21.1.2" type="device">
  <diagram name="Page-1" id="mRK4u71u1NV8tvDuy5Np">
    <mxGraphModel dx="1036" dy="606" grid="1" gridSize="10" guides="1" tooltips="1" connect="1" arrows="1" fold="1" page="1" pageScale="1" pageWidth="850" pageHeight="1100" math="0" shadow="0">
      <root>
        <mxCell id="0" />
        <mxCell id="1" parent="0" />
        <mxCell id="ZhlA9yMO5WBhhf-s9pyR-1" value="USERS" style="rounded=0;whiteSpace=wrap;html=1;fillColor=#ffe6cc;strokeColor=#d79b00;" parent="1" vertex="1">
          <mxGeometry x="220" y="260" width="70" height="30" as="geometry" />
        </mxCell>
        <mxCell id="ZhlA9yMO5WBhhf-s9pyR-2" value="TRIPS" style="rounded=0;whiteSpace=wrap;html=1;fillColor=#ffe6cc;strokeColor=#d79b00;" parent="1" vertex="1">
          <mxGeometry x="560" y="260" width="70" height="30" as="geometry" />
        </mxCell>
        <mxCell id="ZhlA9yMO5WBhhf-s9pyR-3" value="TRAILS" style="rounded=0;whiteSpace=wrap;html=1;fillColor=#ffe6cc;strokeColor=#d79b00;" parent="1" vertex="1">
          <mxGeometry x="560" y="440" width="70" height="30" as="geometry" />
        </mxCell>
        <mxCell id="ZhlA9yMO5WBhhf-s9pyR-4" value="CHAT" style="rounded=0;whiteSpace=wrap;html=1;fillColor=#ffe6cc;strokeColor=#d79b00;dashed=1;" parent="1" vertex="1">
          <mxGeometry x="220" y="440" width="70" height="30" as="geometry" />
        </mxCell>
        <mxCell id="ZhlA9yMO5WBhhf-s9pyR-5" value="HAS" style="rhombus;whiteSpace=wrap;html=1;fillColor=#e1d5e7;strokeColor=#9673a6;" parent="1" vertex="1">
          <mxGeometry x="360" y="330" width="55" height="60" as="geometry" />
        </mxCell>
        <mxCell id="ZhlA9yMO5WBhhf-s9pyR-6" value="" style="endArrow=none;html=1;rounded=0;exitX=1;exitY=0.5;exitDx=0;exitDy=0;entryX=0;entryY=0.5;entryDx=0;entryDy=0;" parent="1" source="ZhlA9yMO5WBhhf-s9pyR-1" target="ZhlA9yMO5WBhhf-s9pyR-5" edge="1">
          <mxGeometry width="50" height="50" relative="1" as="geometry">
            <mxPoint x="400" y="340" as="sourcePoint" />
            <mxPoint x="450" y="290" as="targetPoint" />
            <Array as="points">
              <mxPoint x="320" y="275" />
              <mxPoint x="320" y="360" />
            </Array>
          </mxGeometry>
        </mxCell>
        <mxCell id="ZhlA9yMO5WBhhf-s9pyR-8" value="" style="endArrow=none;html=1;rounded=0;exitX=0.5;exitY=0;exitDx=0;exitDy=0;entryX=0;entryY=0.5;entryDx=0;entryDy=0;" parent="1" source="ZhlA9yMO5WBhhf-s9pyR-5" target="ZhlA9yMO5WBhhf-s9pyR-2" edge="1">
          <mxGeometry width="50" height="50" relative="1" as="geometry">
            <mxPoint x="360" y="350" as="sourcePoint" />
            <mxPoint x="410" y="300" as="targetPoint" />
            <Array as="points">
              <mxPoint x="388" y="275" />
            </Array>
          </mxGeometry>
        </mxCell>
        <mxCell id="ZhlA9yMO5WBhhf-s9pyR-10" value="&lt;u&gt;ID&lt;/u&gt;" style="ellipse;whiteSpace=wrap;html=1;fillColor=#fff2cc;strokeColor=#d6b656;" parent="1" vertex="1">
          <mxGeometry x="220" y="150" width="70" height="30" as="geometry" />
        </mxCell>
        <mxCell id="ZhlA9yMO5WBhhf-s9pyR-11" value="first_name" style="ellipse;whiteSpace=wrap;html=1;fillColor=#dae8fc;strokeColor=#6c8ebf;" parent="1" vertex="1">
          <mxGeometry x="150" y="120" width="70" height="30" as="geometry" />
        </mxCell>
        <mxCell id="ZhlA9yMO5WBhhf-s9pyR-12" value="last_name" style="ellipse;whiteSpace=wrap;html=1;fillColor=#dae8fc;strokeColor=#6c8ebf;" parent="1" vertex="1">
          <mxGeometry x="90" y="150" width="70" height="30" as="geometry" />
        </mxCell>
        <mxCell id="ZhlA9yMO5WBhhf-s9pyR-13" value="email" style="ellipse;whiteSpace=wrap;html=1;fillColor=#dae8fc;strokeColor=#6c8ebf;" parent="1" vertex="1">
          <mxGeometry x="40" y="180" width="70" height="30" as="geometry" />
        </mxCell>
        <mxCell id="ZhlA9yMO5WBhhf-s9pyR-14" value="DOB" style="ellipse;whiteSpace=wrap;html=1;fillColor=#dae8fc;strokeColor=#6c8ebf;" parent="1" vertex="1">
          <mxGeometry x="20" y="220" width="70" height="30" as="geometry" />
        </mxCell>
        <mxCell id="ZhlA9yMO5WBhhf-s9pyR-15" value="Password" style="ellipse;whiteSpace=wrap;html=1;fillColor=#dae8fc;strokeColor=#6c8ebf;" parent="1" vertex="1">
          <mxGeometry x="20" y="300" width="70" height="30" as="geometry" />
        </mxCell>
        <mxCell id="ZhlA9yMO5WBhhf-s9pyR-16" value="Gender" style="ellipse;whiteSpace=wrap;html=1;fillColor=#dae8fc;strokeColor=#6c8ebf;" parent="1" vertex="1">
          <mxGeometry x="10" y="260" width="70" height="30" as="geometry" />
        </mxCell>
        <mxCell id="ZhlA9yMO5WBhhf-s9pyR-17" value="Total Follower" style="ellipse;whiteSpace=wrap;html=1;fillColor=#dae8fc;strokeColor=#6c8ebf;" parent="1" vertex="1">
          <mxGeometry x="30" y="345" width="70" height="30" as="geometry" />
        </mxCell>
        <mxCell id="ZhlA9yMO5WBhhf-s9pyR-18" value="Total Following" style="ellipse;whiteSpace=wrap;html=1;fillColor=#dae8fc;strokeColor=#6c8ebf;" parent="1" vertex="1">
          <mxGeometry x="60" y="380" width="80" height="30" as="geometry" />
        </mxCell>
        <mxCell id="ZhlA9yMO5WBhhf-s9pyR-20" value="" style="endArrow=none;html=1;rounded=0;entryX=0.5;entryY=0;entryDx=0;entryDy=0;exitX=0.5;exitY=1;exitDx=0;exitDy=0;" parent="1" source="ZhlA9yMO5WBhhf-s9pyR-10" target="ZhlA9yMO5WBhhf-s9pyR-1" edge="1">
          <mxGeometry width="50" height="50" relative="1" as="geometry">
            <mxPoint x="130" y="290" as="sourcePoint" />
            <mxPoint x="180" y="240" as="targetPoint" />
          </mxGeometry>
        </mxCell>
        <mxCell id="ZhlA9yMO5WBhhf-s9pyR-22" value="&lt;u&gt;trip_id&lt;/u&gt;" style="ellipse;whiteSpace=wrap;html=1;fillColor=#fff2cc;strokeColor=#d6b656;" parent="1" vertex="1">
          <mxGeometry x="440" y="220" width="70" height="30" as="geometry" />
        </mxCell>
        <mxCell id="ZhlA9yMO5WBhhf-s9pyR-23" value="&lt;u&gt;User_id&lt;/u&gt;" style="ellipse;whiteSpace=wrap;html=1;fillColor=#e3c800;strokeColor=#B09500;dashed=1;fontColor=#000000;" parent="1" vertex="1">
          <mxGeometry x="460" y="170" width="70" height="30" as="geometry" />
        </mxCell>
        <mxCell id="ZhlA9yMO5WBhhf-s9pyR-24" value="Destination" style="ellipse;whiteSpace=wrap;html=1;fillColor=#dae8fc;strokeColor=#6c8ebf;" parent="1" vertex="1">
          <mxGeometry x="490" y="130" width="70" height="30" as="geometry" />
        </mxCell>
        <mxCell id="ZhlA9yMO5WBhhf-s9pyR-25" value="date_start" style="ellipse;whiteSpace=wrap;html=1;fillColor=#dae8fc;strokeColor=#6c8ebf;" parent="1" vertex="1">
          <mxGeometry x="600" y="90" width="70" height="30" as="geometry" />
        </mxCell>
        <mxCell id="ZhlA9yMO5WBhhf-s9pyR-26" value="date_end" style="ellipse;whiteSpace=wrap;html=1;fillColor=#dae8fc;strokeColor=#6c8ebf;" parent="1" vertex="1">
          <mxGeometry x="640" y="140" width="70" height="30" as="geometry" />
        </mxCell>
        <mxCell id="ZhlA9yMO5WBhhf-s9pyR-27" value="total_male_join" style="ellipse;whiteSpace=wrap;html=1;fillColor=#dae8fc;strokeColor=#6c8ebf;" parent="1" vertex="1">
          <mxGeometry x="660" y="190" width="90" height="30" as="geometry" />
        </mxCell>
        <mxCell id="ZhlA9yMO5WBhhf-s9pyR-28" value="total_female_join" style="ellipse;whiteSpace=wrap;html=1;fillColor=#dae8fc;strokeColor=#6c8ebf;" parent="1" vertex="1">
          <mxGeometry x="670" y="240" width="100" height="30" as="geometry" />
        </mxCell>
        <mxCell id="ZhlA9yMO5WBhhf-s9pyR-29" value="Note" style="ellipse;whiteSpace=wrap;html=1;fillColor=#dae8fc;strokeColor=#6c8ebf;" parent="1" vertex="1">
          <mxGeometry x="520" y="90" width="70" height="30" as="geometry" />
        </mxCell>
        <mxCell id="ZhlA9yMO5WBhhf-s9pyR-30" value="trail_id" style="ellipse;whiteSpace=wrap;html=1;fillColor=#fff2cc;strokeColor=#d6b656;fontStyle=4" parent="1" vertex="1">
          <mxGeometry x="460" y="510" width="70" height="30" as="geometry" />
        </mxCell>
        <mxCell id="ZhlA9yMO5WBhhf-s9pyR-32" value="user_id" style="ellipse;whiteSpace=wrap;html=1;fillColor=#e3c800;strokeColor=#B09500;fontColor=#000000;dashed=1;" parent="1" vertex="1">
          <mxGeometry x="620" y="520" width="70" height="30" as="geometry" />
        </mxCell>
        <mxCell id="ZhlA9yMO5WBhhf-s9pyR-33" value="title" style="ellipse;whiteSpace=wrap;html=1;fillColor=#dae8fc;strokeColor=#6c8ebf;rotation=3;" parent="1" vertex="1">
          <mxGeometry x="670" y="470" width="70" height="30" as="geometry" />
        </mxCell>
        <mxCell id="ZhlA9yMO5WBhhf-s9pyR-34" value="Experience" style="ellipse;whiteSpace=wrap;html=1;fillColor=#dae8fc;strokeColor=#6c8ebf;" parent="1" vertex="1">
          <mxGeometry x="690" y="430" width="70" height="30" as="geometry" />
        </mxCell>
        <mxCell id="ZhlA9yMO5WBhhf-s9pyR-35" value="views" style="ellipse;whiteSpace=wrap;html=1;fillColor=#dae8fc;strokeColor=#6c8ebf;" parent="1" vertex="1">
          <mxGeometry x="680" y="380" width="70" height="30" as="geometry" />
        </mxCell>
        <mxCell id="ZhlA9yMO5WBhhf-s9pyR-37" value="traip_id" style="ellipse;whiteSpace=wrap;html=1;fillColor=#e3c800;strokeColor=#B09500;fontColor=#000000;dashed=1;" parent="1" vertex="1">
          <mxGeometry x="540" y="520" width="70" height="30" as="geometry" />
        </mxCell>
        <mxCell id="ZhlA9yMO5WBhhf-s9pyR-39" value="Chat_channel_id" style="ellipse;whiteSpace=wrap;html=1;fillColor=#fff2cc;strokeColor=#d6b656;fontStyle=4" parent="1" vertex="1">
          <mxGeometry x="90" y="480" width="110" height="30" as="geometry" />
        </mxCell>
        <mxCell id="ZhlA9yMO5WBhhf-s9pyR-40" value="from_user_id" style="ellipse;whiteSpace=wrap;html=1;fillColor=#e3c800;strokeColor=#B09500;fontColor=#000000;dashed=1;" parent="1" vertex="1">
          <mxGeometry x="100" y="520" width="100" height="30" as="geometry" />
        </mxCell>
        <mxCell id="ZhlA9yMO5WBhhf-s9pyR-41" value="to_user_id" style="ellipse;whiteSpace=wrap;html=1;fillColor=#e3c800;strokeColor=#B09500;fontColor=#000000;dashed=1;" parent="1" vertex="1">
          <mxGeometry x="150" y="560" width="100" height="30" as="geometry" />
        </mxCell>
        <mxCell id="ZhlA9yMO5WBhhf-s9pyR-43" value="encrypted_msg" style="ellipse;whiteSpace=wrap;html=1;fillColor=#dae8fc;strokeColor=#6c8ebf;" parent="1" vertex="1">
          <mxGeometry x="250" y="540" width="100" height="30" as="geometry" />
        </mxCell>
        <mxCell id="ZhlA9yMO5WBhhf-s9pyR-44" value="file" style="ellipse;whiteSpace=wrap;html=1;fillColor=#dae8fc;strokeColor=#6c8ebf;" parent="1" vertex="1">
          <mxGeometry x="290" y="500" width="100" height="30" as="geometry" />
        </mxCell>
        <mxCell id="ZhlA9yMO5WBhhf-s9pyR-51" value="" style="endArrow=none;html=1;rounded=0;exitX=1;exitY=0.5;exitDx=0;exitDy=0;entryX=0.5;entryY=1;entryDx=0;entryDy=0;" parent="1" source="ZhlA9yMO5WBhhf-s9pyR-39" target="ZhlA9yMO5WBhhf-s9pyR-4" edge="1">
          <mxGeometry width="50" height="50" relative="1" as="geometry">
            <mxPoint x="170" y="420" as="sourcePoint" />
            <mxPoint x="220" y="370" as="targetPoint" />
          </mxGeometry>
        </mxCell>
        <mxCell id="ZhlA9yMO5WBhhf-s9pyR-52" value="" style="endArrow=none;html=1;rounded=0;exitX=1;exitY=0.5;exitDx=0;exitDy=0;entryX=0.5;entryY=1;entryDx=0;entryDy=0;" parent="1" source="ZhlA9yMO5WBhhf-s9pyR-40" target="ZhlA9yMO5WBhhf-s9pyR-4" edge="1">
          <mxGeometry width="50" height="50" relative="1" as="geometry">
            <mxPoint x="155" y="490" as="sourcePoint" />
            <mxPoint x="265" y="480" as="targetPoint" />
          </mxGeometry>
        </mxCell>
        <mxCell id="ZhlA9yMO5WBhhf-s9pyR-53" value="" style="endArrow=none;html=1;rounded=0;exitX=0.6;exitY=0;exitDx=0;exitDy=0;entryX=0.5;entryY=1;entryDx=0;entryDy=0;exitPerimeter=0;" parent="1" source="ZhlA9yMO5WBhhf-s9pyR-41" target="ZhlA9yMO5WBhhf-s9pyR-4" edge="1">
          <mxGeometry width="50" height="50" relative="1" as="geometry">
            <mxPoint x="165" y="500" as="sourcePoint" />
            <mxPoint x="275" y="490" as="targetPoint" />
          </mxGeometry>
        </mxCell>
        <mxCell id="ZhlA9yMO5WBhhf-s9pyR-54" value="" style="endArrow=none;html=1;rounded=0;exitX=0;exitY=0;exitDx=0;exitDy=0;entryX=0.5;entryY=1;entryDx=0;entryDy=0;" parent="1" source="ZhlA9yMO5WBhhf-s9pyR-43" target="ZhlA9yMO5WBhhf-s9pyR-4" edge="1">
          <mxGeometry width="50" height="50" relative="1" as="geometry">
            <mxPoint x="175" y="510" as="sourcePoint" />
            <mxPoint x="285" y="500" as="targetPoint" />
          </mxGeometry>
        </mxCell>
        <mxCell id="ZhlA9yMO5WBhhf-s9pyR-55" value="" style="endArrow=none;html=1;rounded=0;entryX=0;entryY=0.5;entryDx=0;entryDy=0;" parent="1" target="ZhlA9yMO5WBhhf-s9pyR-44" edge="1">
          <mxGeometry width="50" height="50" relative="1" as="geometry">
            <mxPoint x="255" y="470" as="sourcePoint" />
            <mxPoint x="295" y="510" as="targetPoint" />
          </mxGeometry>
        </mxCell>
        <mxCell id="ZhlA9yMO5WBhhf-s9pyR-56" value="" style="endArrow=none;html=1;rounded=0;exitX=1;exitY=0.333;exitDx=0;exitDy=0;exitPerimeter=0;entryX=0;entryY=0.5;entryDx=0;entryDy=0;" parent="1" source="ZhlA9yMO5WBhhf-s9pyR-18" target="ZhlA9yMO5WBhhf-s9pyR-1" edge="1">
          <mxGeometry width="50" height="50" relative="1" as="geometry">
            <mxPoint x="170" y="390" as="sourcePoint" />
            <mxPoint x="220" y="340" as="targetPoint" />
          </mxGeometry>
        </mxCell>
        <mxCell id="ZhlA9yMO5WBhhf-s9pyR-57" value="" style="endArrow=none;html=1;rounded=0;exitX=1;exitY=0.5;exitDx=0;exitDy=0;entryX=0;entryY=0.5;entryDx=0;entryDy=0;" parent="1" source="ZhlA9yMO5WBhhf-s9pyR-17" target="ZhlA9yMO5WBhhf-s9pyR-1" edge="1">
          <mxGeometry width="50" height="50" relative="1" as="geometry">
            <mxPoint x="150" y="400" as="sourcePoint" />
            <mxPoint x="230" y="285" as="targetPoint" />
          </mxGeometry>
        </mxCell>
        <mxCell id="ZhlA9yMO5WBhhf-s9pyR-58" value="" style="endArrow=none;html=1;rounded=0;exitX=1;exitY=0.5;exitDx=0;exitDy=0;" parent="1" source="ZhlA9yMO5WBhhf-s9pyR-15" edge="1">
          <mxGeometry width="50" height="50" relative="1" as="geometry">
            <mxPoint x="160" y="410" as="sourcePoint" />
            <mxPoint x="220" y="275" as="targetPoint" />
          </mxGeometry>
        </mxCell>
        <mxCell id="ZhlA9yMO5WBhhf-s9pyR-59" value="" style="endArrow=none;html=1;rounded=0;entryX=0;entryY=0.5;entryDx=0;entryDy=0;exitX=1;exitY=0.5;exitDx=0;exitDy=0;" parent="1" source="ZhlA9yMO5WBhhf-s9pyR-16" target="ZhlA9yMO5WBhhf-s9pyR-1" edge="1">
          <mxGeometry width="50" height="50" relative="1" as="geometry">
            <mxPoint x="130" y="340" as="sourcePoint" />
            <mxPoint x="250" y="305" as="targetPoint" />
          </mxGeometry>
        </mxCell>
        <mxCell id="ZhlA9yMO5WBhhf-s9pyR-60" value="" style="endArrow=none;html=1;rounded=0;exitX=1.016;exitY=0.587;exitDx=0;exitDy=0;exitPerimeter=0;" parent="1" source="ZhlA9yMO5WBhhf-s9pyR-14" edge="1">
          <mxGeometry width="50" height="50" relative="1" as="geometry">
            <mxPoint x="90" y="285" as="sourcePoint" />
            <mxPoint x="220" y="275" as="targetPoint" />
          </mxGeometry>
        </mxCell>
        <mxCell id="ZhlA9yMO5WBhhf-s9pyR-61" value="" style="endArrow=none;html=1;rounded=0;entryX=0;entryY=0.5;entryDx=0;entryDy=0;exitX=0.994;exitY=0.631;exitDx=0;exitDy=0;exitPerimeter=0;" parent="1" source="ZhlA9yMO5WBhhf-s9pyR-13" target="ZhlA9yMO5WBhhf-s9pyR-1" edge="1">
          <mxGeometry width="50" height="50" relative="1" as="geometry">
            <mxPoint x="100" y="295" as="sourcePoint" />
            <mxPoint x="240" y="295" as="targetPoint" />
          </mxGeometry>
        </mxCell>
        <mxCell id="ZhlA9yMO5WBhhf-s9pyR-62" value="" style="endArrow=none;html=1;rounded=0;entryX=-0.025;entryY=0.55;entryDx=0;entryDy=0;exitX=1;exitY=0.5;exitDx=0;exitDy=0;entryPerimeter=0;" parent="1" source="ZhlA9yMO5WBhhf-s9pyR-12" target="ZhlA9yMO5WBhhf-s9pyR-1" edge="1">
          <mxGeometry width="50" height="50" relative="1" as="geometry">
            <mxPoint x="110" y="305" as="sourcePoint" />
            <mxPoint x="250" y="305" as="targetPoint" />
          </mxGeometry>
        </mxCell>
        <mxCell id="ZhlA9yMO5WBhhf-s9pyR-63" value="" style="endArrow=none;html=1;rounded=0;entryX=-0.029;entryY=0.506;entryDx=0;entryDy=0;exitX=0.5;exitY=1;exitDx=0;exitDy=0;entryPerimeter=0;" parent="1" source="ZhlA9yMO5WBhhf-s9pyR-11" target="ZhlA9yMO5WBhhf-s9pyR-1" edge="1">
          <mxGeometry width="50" height="50" relative="1" as="geometry">
            <mxPoint x="170" y="175" as="sourcePoint" />
            <mxPoint x="228" y="287" as="targetPoint" />
          </mxGeometry>
        </mxCell>
        <mxCell id="ZhlA9yMO5WBhhf-s9pyR-64" value="" style="endArrow=none;html=1;rounded=0;entryX=0.5;entryY=0;entryDx=0;entryDy=0;exitX=1;exitY=0.5;exitDx=0;exitDy=0;" parent="1" source="ZhlA9yMO5WBhhf-s9pyR-22" target="ZhlA9yMO5WBhhf-s9pyR-2" edge="1">
          <mxGeometry width="50" height="50" relative="1" as="geometry">
            <mxPoint x="470" y="280" as="sourcePoint" />
            <mxPoint x="520" y="230" as="targetPoint" />
          </mxGeometry>
        </mxCell>
        <mxCell id="ZhlA9yMO5WBhhf-s9pyR-65" value="" style="endArrow=none;html=1;rounded=0;entryX=0.5;entryY=0;entryDx=0;entryDy=0;" parent="1" source="ZhlA9yMO5WBhhf-s9pyR-23" target="ZhlA9yMO5WBhhf-s9pyR-2" edge="1">
          <mxGeometry width="50" height="50" relative="1" as="geometry">
            <mxPoint x="531" y="189" as="sourcePoint" />
            <mxPoint x="520" y="230" as="targetPoint" />
          </mxGeometry>
        </mxCell>
        <mxCell id="ZhlA9yMO5WBhhf-s9pyR-66" value="" style="endArrow=none;html=1;rounded=0;entryX=0.5;entryY=0;entryDx=0;entryDy=0;exitX=1;exitY=0.5;exitDx=0;exitDy=0;" parent="1" source="ZhlA9yMO5WBhhf-s9pyR-24" target="ZhlA9yMO5WBhhf-s9pyR-2" edge="1">
          <mxGeometry width="50" height="50" relative="1" as="geometry">
            <mxPoint x="541" y="199" as="sourcePoint" />
            <mxPoint x="605" y="270" as="targetPoint" />
          </mxGeometry>
        </mxCell>
        <mxCell id="ZhlA9yMO5WBhhf-s9pyR-67" value="" style="endArrow=none;html=1;rounded=0;exitX=1;exitY=1;exitDx=0;exitDy=0;" parent="1" source="ZhlA9yMO5WBhhf-s9pyR-29" target="ZhlA9yMO5WBhhf-s9pyR-2" edge="1">
          <mxGeometry width="50" height="50" relative="1" as="geometry">
            <mxPoint x="551" y="209" as="sourcePoint" />
            <mxPoint x="590" y="260" as="targetPoint" />
          </mxGeometry>
        </mxCell>
        <mxCell id="ZhlA9yMO5WBhhf-s9pyR-68" value="" style="endArrow=none;html=1;rounded=0;entryX=0.458;entryY=0.024;entryDx=0;entryDy=0;exitX=0.429;exitY=1;exitDx=0;exitDy=0;exitPerimeter=0;entryPerimeter=0;" parent="1" source="ZhlA9yMO5WBhhf-s9pyR-25" target="ZhlA9yMO5WBhhf-s9pyR-2" edge="1">
          <mxGeometry width="50" height="50" relative="1" as="geometry">
            <mxPoint x="561" y="219" as="sourcePoint" />
            <mxPoint x="625" y="290" as="targetPoint" />
          </mxGeometry>
        </mxCell>
        <mxCell id="ZhlA9yMO5WBhhf-s9pyR-69" value="" style="endArrow=none;html=1;rounded=0;entryX=0.5;entryY=0;entryDx=0;entryDy=0;exitX=0.035;exitY=0.62;exitDx=0;exitDy=0;exitPerimeter=0;" parent="1" source="ZhlA9yMO5WBhhf-s9pyR-26" target="ZhlA9yMO5WBhhf-s9pyR-2" edge="1">
          <mxGeometry width="50" height="50" relative="1" as="geometry">
            <mxPoint x="571" y="229" as="sourcePoint" />
            <mxPoint x="635" y="300" as="targetPoint" />
          </mxGeometry>
        </mxCell>
        <mxCell id="ZhlA9yMO5WBhhf-s9pyR-70" value="" style="endArrow=none;html=1;rounded=0;entryX=0.5;entryY=0;entryDx=0;entryDy=0;exitX=0.007;exitY=0.598;exitDx=0;exitDy=0;exitPerimeter=0;" parent="1" source="ZhlA9yMO5WBhhf-s9pyR-27" target="ZhlA9yMO5WBhhf-s9pyR-2" edge="1">
          <mxGeometry width="50" height="50" relative="1" as="geometry">
            <mxPoint x="652" y="169" as="sourcePoint" />
            <mxPoint x="605" y="270" as="targetPoint" />
          </mxGeometry>
        </mxCell>
        <mxCell id="ZhlA9yMO5WBhhf-s9pyR-71" value="" style="endArrow=none;html=1;rounded=0;exitX=0;exitY=0.5;exitDx=0;exitDy=0;" parent="1" source="ZhlA9yMO5WBhhf-s9pyR-28" edge="1">
          <mxGeometry width="50" height="50" relative="1" as="geometry">
            <mxPoint x="662" y="179" as="sourcePoint" />
            <mxPoint x="590" y="260" as="targetPoint" />
          </mxGeometry>
        </mxCell>
        <mxCell id="ZhlA9yMO5WBhhf-s9pyR-72" value="" style="endArrow=none;html=1;rounded=0;exitX=0.584;exitY=0.023;exitDx=0;exitDy=0;exitPerimeter=0;entryX=0.5;entryY=1;entryDx=0;entryDy=0;" parent="1" source="ZhlA9yMO5WBhhf-s9pyR-30" target="ZhlA9yMO5WBhhf-s9pyR-3" edge="1">
          <mxGeometry width="50" height="50" relative="1" as="geometry">
            <mxPoint x="510" y="490" as="sourcePoint" />
            <mxPoint x="580" y="470" as="targetPoint" />
          </mxGeometry>
        </mxCell>
        <mxCell id="ZhlA9yMO5WBhhf-s9pyR-73" value="" style="endArrow=none;html=1;rounded=0;exitX=0.567;exitY=0.007;exitDx=0;exitDy=0;entryX=0.5;entryY=1;entryDx=0;entryDy=0;exitPerimeter=0;" parent="1" source="ZhlA9yMO5WBhhf-s9pyR-37" target="ZhlA9yMO5WBhhf-s9pyR-3" edge="1">
          <mxGeometry width="50" height="50" relative="1" as="geometry">
            <mxPoint x="510" y="475" as="sourcePoint" />
            <mxPoint x="570" y="465" as="targetPoint" />
          </mxGeometry>
        </mxCell>
        <mxCell id="ZhlA9yMO5WBhhf-s9pyR-74" value="" style="endArrow=none;html=1;rounded=0;exitX=0.449;exitY=0.004;exitDx=0;exitDy=0;entryX=0.5;entryY=1;entryDx=0;entryDy=0;exitPerimeter=0;" parent="1" source="ZhlA9yMO5WBhhf-s9pyR-32" target="ZhlA9yMO5WBhhf-s9pyR-3" edge="1">
          <mxGeometry width="50" height="50" relative="1" as="geometry">
            <mxPoint x="520" y="485" as="sourcePoint" />
            <mxPoint x="580" y="475" as="targetPoint" />
          </mxGeometry>
        </mxCell>
        <mxCell id="ZhlA9yMO5WBhhf-s9pyR-75" value="" style="endArrow=none;html=1;rounded=0;exitX=0.275;exitY=0.027;exitDx=0;exitDy=0;entryX=1;entryY=0.5;entryDx=0;entryDy=0;exitPerimeter=0;" parent="1" source="ZhlA9yMO5WBhhf-s9pyR-33" target="ZhlA9yMO5WBhhf-s9pyR-3" edge="1">
          <mxGeometry width="50" height="50" relative="1" as="geometry">
            <mxPoint x="530" y="495" as="sourcePoint" />
            <mxPoint x="590" y="485" as="targetPoint" />
          </mxGeometry>
        </mxCell>
        <mxCell id="ZhlA9yMO5WBhhf-s9pyR-76" value="" style="endArrow=none;html=1;rounded=0;exitX=0.022;exitY=0.362;exitDx=0;exitDy=0;exitPerimeter=0;" parent="1" source="ZhlA9yMO5WBhhf-s9pyR-34" edge="1">
          <mxGeometry width="50" height="50" relative="1" as="geometry">
            <mxPoint x="540" y="505" as="sourcePoint" />
            <mxPoint x="630" y="455" as="targetPoint" />
          </mxGeometry>
        </mxCell>
        <mxCell id="ZhlA9yMO5WBhhf-s9pyR-77" value="" style="endArrow=none;html=1;rounded=0;exitX=1.01;exitY=0.416;exitDx=0;exitDy=0;entryX=-0.018;entryY=0.607;entryDx=0;entryDy=0;entryPerimeter=0;exitPerimeter=0;" parent="1" source="ZhlA9yMO5WBhhf-s9pyR-3" target="ZhlA9yMO5WBhhf-s9pyR-35" edge="1">
          <mxGeometry width="50" height="50" relative="1" as="geometry">
            <mxPoint x="520" y="510" as="sourcePoint" />
            <mxPoint x="580" y="500" as="targetPoint" />
          </mxGeometry>
        </mxCell>
        <mxCell id="ZhlA9yMO5WBhhf-s9pyR-80" value="" style="endArrow=none;html=1;rounded=0;entryX=0.5;entryY=1;entryDx=0;entryDy=0;exitX=0;exitY=0.5;exitDx=0;exitDy=0;" parent="1" source="ZhlA9yMO5WBhhf-s9pyR-3" target="ZhlA9yMO5WBhhf-s9pyR-5" edge="1">
          <mxGeometry width="50" height="50" relative="1" as="geometry">
            <mxPoint x="480" y="360" as="sourcePoint" />
            <mxPoint x="410" y="370" as="targetPoint" />
            <Array as="points">
              <mxPoint x="480" y="455" />
              <mxPoint x="390" y="455" />
            </Array>
          </mxGeometry>
        </mxCell>
        <mxCell id="ZhlA9yMO5WBhhf-s9pyR-100" value="HAS" style="rhombus;whiteSpace=wrap;html=1;fillColor=#e1d5e7;strokeColor=#9673a6;" parent="1" vertex="1">
          <mxGeometry x="238.75" y="345" width="32.5" height="30" as="geometry" />
        </mxCell>
        <mxCell id="ZhlA9yMO5WBhhf-s9pyR-101" value="HAS" style="rhombus;whiteSpace=wrap;html=1;fillColor=#e1d5e7;strokeColor=#9673a6;" parent="1" vertex="1">
          <mxGeometry x="578.75" y="350" width="32.5" height="30" as="geometry" />
        </mxCell>
        <mxCell id="ZhlA9yMO5WBhhf-s9pyR-102" value="" style="endArrow=none;html=1;rounded=0;entryX=0.5;entryY=1;entryDx=0;entryDy=0;exitX=0.5;exitY=0;exitDx=0;exitDy=0;" parent="1" source="ZhlA9yMO5WBhhf-s9pyR-100" target="ZhlA9yMO5WBhhf-s9pyR-1" edge="1">
          <mxGeometry width="50" height="50" relative="1" as="geometry">
            <mxPoint x="350" y="420" as="sourcePoint" />
            <mxPoint x="400" y="370" as="targetPoint" />
          </mxGeometry>
        </mxCell>
        <mxCell id="ZhlA9yMO5WBhhf-s9pyR-103" value="" style="endArrow=none;html=1;rounded=0;exitX=0.5;exitY=1;exitDx=0;exitDy=0;entryX=0.5;entryY=0;entryDx=0;entryDy=0;" parent="1" source="ZhlA9yMO5WBhhf-s9pyR-100" target="ZhlA9yMO5WBhhf-s9pyR-4" edge="1">
          <mxGeometry width="50" height="50" relative="1" as="geometry">
            <mxPoint x="350" y="420" as="sourcePoint" />
            <mxPoint x="400" y="370" as="targetPoint" />
          </mxGeometry>
        </mxCell>
        <mxCell id="ZhlA9yMO5WBhhf-s9pyR-104" value="&lt;font style=&quot;font-size: 12px;&quot;&gt;1&lt;/font&gt;" style="text;html=1;strokeColor=none;fillColor=none;align=center;verticalAlign=middle;whiteSpace=wrap;rounded=0;" parent="1" vertex="1">
          <mxGeometry x="211.25" y="290" width="60" height="30" as="geometry" />
        </mxCell>
        <mxCell id="ZhlA9yMO5WBhhf-s9pyR-105" value="M" style="text;html=1;align=center;verticalAlign=middle;resizable=0;points=[];autosize=1;strokeColor=none;fillColor=none;" parent="1" vertex="1">
          <mxGeometry x="226.25" y="410" width="30" height="30" as="geometry" />
        </mxCell>
        <mxCell id="ZhlA9yMO5WBhhf-s9pyR-106" value="" style="endArrow=none;html=1;rounded=0;entryX=0.5;entryY=1;entryDx=0;entryDy=0;" parent="1" source="ZhlA9yMO5WBhhf-s9pyR-101" edge="1">
          <mxGeometry width="50" height="50" relative="1" as="geometry">
            <mxPoint x="594.76" y="345" as="sourcePoint" />
            <mxPoint x="594.76" y="290" as="targetPoint" />
          </mxGeometry>
        </mxCell>
        <mxCell id="ZhlA9yMO5WBhhf-s9pyR-107" value="" style="endArrow=none;html=1;rounded=0;exitX=0.5;exitY=1;exitDx=0;exitDy=0;" parent="1" target="ZhlA9yMO5WBhhf-s9pyR-3" edge="1">
          <mxGeometry width="50" height="50" relative="1" as="geometry">
            <mxPoint x="594.76" y="380" as="sourcePoint" />
            <mxPoint x="595" y="437" as="targetPoint" />
          </mxGeometry>
        </mxCell>
        <mxCell id="ZhlA9yMO5WBhhf-s9pyR-109" value="&lt;font style=&quot;font-size: 12px;&quot;&gt;1&lt;/font&gt;" style="text;html=1;strokeColor=none;fillColor=none;align=center;verticalAlign=middle;whiteSpace=wrap;rounded=0;" parent="1" vertex="1">
          <mxGeometry x="560" y="280" width="60" height="30" as="geometry" />
        </mxCell>
        <mxCell id="ZhlA9yMO5WBhhf-s9pyR-111" value="M" style="text;html=1;align=center;verticalAlign=middle;resizable=0;points=[];autosize=1;strokeColor=none;fillColor=none;" parent="1" vertex="1">
          <mxGeometry x="570" y="410" width="30" height="30" as="geometry" />
        </mxCell>
        <mxCell id="ZhlA9yMO5WBhhf-s9pyR-112" value="Foreign_key&amp;nbsp;" style="ellipse;whiteSpace=wrap;html=1;fillColor=#e3c800;strokeColor=#B09500;fontColor=#000000;dashed=1;" parent="1" vertex="1">
          <mxGeometry x="220" y="680" width="100" height="30" as="geometry" />
        </mxCell>
        <mxCell id="ZhlA9yMO5WBhhf-s9pyR-113" value="Primary_key" style="ellipse;whiteSpace=wrap;html=1;fillColor=#fff2cc;strokeColor=#d6b656;fontStyle=4" parent="1" vertex="1">
          <mxGeometry x="80" y="680" width="110" height="30" as="geometry" />
        </mxCell>
        <mxCell id="ZhlA9yMO5WBhhf-s9pyR-114" value="" style="endArrow=none;html=1;rounded=0;" parent="1" edge="1">
          <mxGeometry width="50" height="50" relative="1" as="geometry">
            <mxPoint x="40" y="640" as="sourcePoint" />
            <mxPoint x="760" y="640" as="targetPoint" />
          </mxGeometry>
        </mxCell>
        <mxCell id="ZhlA9yMO5WBhhf-s9pyR-115" value="Entity" style="rounded=0;whiteSpace=wrap;html=1;fillColor=#ffe6cc;strokeColor=#d79b00;dashed=1;" parent="1" vertex="1">
          <mxGeometry x="355" y="680" width="70" height="30" as="geometry" />
        </mxCell>
        <mxCell id="ZhlA9yMO5WBhhf-s9pyR-116" value="Attributes" style="ellipse;whiteSpace=wrap;html=1;fillColor=#dae8fc;strokeColor=#6c8ebf;" parent="1" vertex="1">
          <mxGeometry x="470" y="680" width="100" height="30" as="geometry" />
        </mxCell>
        <mxCell id="ZhlA9yMO5WBhhf-s9pyR-117" value="Relationship" style="rhombus;whiteSpace=wrap;html=1;fillColor=#e1d5e7;strokeColor=#9673a6;" parent="1" vertex="1">
          <mxGeometry x="608.75" y="665" width="92.5" height="45" as="geometry" />
        </mxCell>
        <mxCell id="ZhlA9yMO5WBhhf-s9pyR-118" value="" style="endArrow=none;html=1;rounded=0;" parent="1" edge="1">
          <mxGeometry width="50" height="50" relative="1" as="geometry">
            <mxPoint x="40" y="720" as="sourcePoint" />
            <mxPoint x="40" y="680" as="targetPoint" />
          </mxGeometry>
        </mxCell>
        <mxCell id="ZhlA9yMO5WBhhf-s9pyR-119" value="" style="endArrow=none;html=1;rounded=0;" parent="1" edge="1">
          <mxGeometry width="50" height="50" relative="1" as="geometry">
            <mxPoint x="40" y="720" as="sourcePoint" />
            <mxPoint x="760" y="720" as="targetPoint" />
          </mxGeometry>
        </mxCell>
        <mxCell id="ZhlA9yMO5WBhhf-s9pyR-120" value="" style="endArrow=none;html=1;rounded=0;" parent="1" edge="1">
          <mxGeometry width="50" height="50" relative="1" as="geometry">
            <mxPoint x="40" y="640" as="sourcePoint" />
            <mxPoint x="40" y="720" as="targetPoint" />
          </mxGeometry>
        </mxCell>
        <mxCell id="ZhlA9yMO5WBhhf-s9pyR-121" value="" style="endArrow=none;html=1;rounded=0;" parent="1" edge="1">
          <mxGeometry width="50" height="50" relative="1" as="geometry">
            <mxPoint x="760" y="637.5" as="sourcePoint" />
            <mxPoint x="760" y="717.5" as="targetPoint" />
          </mxGeometry>
        </mxCell>
        <mxCell id="ZhlA9yMO5WBhhf-s9pyR-122" value="&lt;b&gt;&lt;font style=&quot;font-size: 15px;&quot;&gt;VAGA TRIP ER-DIAGRAM&amp;nbsp;&lt;/font&gt;&lt;/b&gt;" style="text;html=1;strokeColor=none;fillColor=none;align=center;verticalAlign=middle;whiteSpace=wrap;rounded=0;" parent="1" vertex="1">
          <mxGeometry x="278.75" y="650" width="222.5" height="30" as="geometry" />
        </mxCell>
      </root>
    </mxGraphModel>
  </diagram>
</mxfile>
